<svg width="450" height="57" viewBox="0 0 450 57" fill="none" xmlns="http://www.w3.org/2000/svg">
<path d="M50.8991 24.2539L50.757 24.2321C46.3348 21.273 42.2002 17.9152 38.4098 14.2042L34.1451 9.82867C32.4194 7.94287 30.7399 5.86193 29.1443 3.87351L27.2029 1.16846C26.9649 1.02883 26.667 0.794998 26.4051 0.726026C25.8349 0.480418 25.2135 0.773129 24.7512 1.12135L21.2364 5.61464C15.6056 12.4732 8.93722 18.8708 1.66109 23.7745C1.08928 24.2186 0.23326 24.651 0.0534974 25.376C-0.136538 26.0304 0.209291 26.5687 0.625315 26.9792C6.44793 30.9224 12.0206 35.6007 16.9752 40.9385C17.8569 41.8519 18.5708 42.7503 19.4285 43.6065C20.8803 45.5007 22.5838 47.4084 23.9175 49.4422C24.3352 49.8763 24.4054 50.5778 25.0611 50.788C25.5747 50.9647 26.2047 51.0807 26.6944 50.788L27.1806 50.3086C33.2069 41.9175 40.8512 34.3844 49.389 28.2997C50.2468 27.5511 51.8783 27.2702 51.9006 25.879C51.8338 25.2162 51.4657 24.6173 50.9008 24.2506L50.8991 24.2539ZM45.0645 26.5014C44.0886 28.8885 42.1112 30.7945 40.3838 32.8771C36.6464 36.8321 32.7053 40.6559 28.2866 43.7108C27.3929 44.3316 26.1911 44.9035 25.1193 44.4123C21.8699 42.7418 19.1306 40.0015 16.2852 37.5101C12.9879 34.5039 9.67681 31.0031 7.17725 27.3409C6.80745 26.8261 6.69959 26.1936 6.71158 25.5156C7.03344 24.2523 7.91514 23.2109 8.74718 22.1461C11.7004 18.4485 15.3214 14.9393 18.9766 11.733C19.0587 11.6505 19.2145 11.4756 19.3446 11.3948C20.8786 10.0995 22.4725 8.87315 24.1212 7.72081C25.8367 6.41034 27.9904 7.49875 29.4319 8.70493C30.9436 9.84044 32.5153 11.1257 33.8969 12.4362L34.1469 12.5758C37.9698 16.0648 41.5188 19.9356 44.4361 24.0302C44.9121 24.7452 45.3281 25.5526 45.0662 26.5014H45.0645Z" fill="#00629B"/>
<path d="M69.3455 7.29346H58.5957V45.4233H69.3455V7.29346Z" fill="#00629B"/>
<path d="M74.9873 45.4233H104.551V38.0298H85.7371V29.95H103.042V22.5548H85.7371V14.6869H104.551V7.29346H74.9873V45.4233Z" fill="#00629B"/>
<path d="M175.711 14.6869V7.29346H146.149V45.4233H175.711V38.0298H156.897V29.95H174.204V22.5548H156.897V14.6869H175.711Z" fill="#00629B"/>
<path d="M110.568 45.4233H140.13V38.0298H121.316V29.95H138.623V22.5548H121.316V14.6869H140.13V7.29346H110.568V45.4233Z" fill="#00629B"/>
<path d="M43.4309 24.3246C39.6559 18.9532 34.7047 14.2042 29.4522 10.0508C28.0945 9.11375 26.5229 7.47693 24.7732 8.64609C19.3307 12.3437 14.0919 17.35 9.87684 22.4624C9.01911 23.7039 7.51937 24.8865 8.19734 26.5368C8.68526 27.7531 9.78096 28.6295 10.4846 29.7061C14.6157 34.5847 19.4984 39.1368 24.5934 42.7991C26.8328 44.2021 28.4284 41.9327 30.1661 40.8914C33.7271 38.1325 37.0245 34.7731 40.1455 31.5095V31.4288C41.3953 29.9417 42.717 28.4798 43.6928 26.8766C44.1226 26.091 43.9086 25.0144 43.4292 24.3246H43.4309ZM25.3827 13.6188L25.8586 12.1216H25.9186C26.8944 14.8687 27.9062 17.6024 28.9557 20.3243L26.8602 20.3596L26.8122 20.6052L27.1221 27.965V28.0811C26.3466 28.2106 25.3964 28.1736 24.6345 28.1063L24.5746 28.0239L24.9204 20.442V20.3831C24.3366 20.3259 23.5988 20.3831 23.003 20.3259L25.3844 13.6205L25.3827 13.6188ZM24.1432 38.0737C24.3469 35.3703 24.3812 32.8772 24.5232 30.1856C25.4888 30.2781 26.3226 30.2445 27.2026 30.2091L27.2625 30.5725L27.6083 38.0955C26.4527 38.2621 25.2269 38.1679 24.1432 38.0737ZM32.9173 28.6867C27.9182 30.2209 21.6299 30.1503 16.891 28.103C16.0333 27.6925 14.9496 27.0617 14.6637 26.0775C14.448 24.2792 16.4117 23.2816 17.7487 22.6272C18.5346 22.2891 19.3324 21.9157 20.2004 21.8652C21.0102 22.4506 21.8559 22.9183 22.688 23.4465C21.0701 23.8671 19.1286 24.2304 18.3788 25.9749C18.5089 27.2938 20.0343 27.7177 21.0923 28.0441C24.9153 29.04 29.0464 28.9104 32.7153 27.6C33.4053 27.2013 34.501 26.7235 34.4051 25.7394C34.2852 24.688 33.0594 24.2187 32.2017 23.8906C31.6881 23.9613 31.183 24.0757 30.69 24.2321C30.4263 23.5054 30.2021 22.7669 29.8922 22.0654C31.51 22.4859 33.1313 22.9183 34.8091 23.211V23.2463C34.465 23.2816 34.0815 23.4011 33.7494 23.5289V23.5878C34.703 24.0555 36.0247 24.8259 36.0366 26.0557C35.8107 27.5428 34.1551 28.2207 32.9173 28.6884V28.6867Z" fill="#00629B"/>
<path fill-rule="evenodd" clip-rule="evenodd" d="M34.4836 47.0299V46.5706H34.7747C34.9322 46.5706 35.1462 46.5858 35.1462 46.7809C35.1462 46.9929 35.0366 47.0316 34.8517 47.0316H34.4836V47.0299ZM34.4836 47.3512H34.6805L35.1274 48.1519H35.6187L35.1222 47.3192C35.3807 47.2973 35.5896 47.1712 35.5896 46.8213C35.5896 46.3856 35.2951 46.2459 34.7935 46.2459H34.0693V48.1502H34.4819V47.3495L34.4836 47.3512ZM36.5894 47.1998C36.5894 46.0811 35.7351 45.4301 34.7832 45.4301C33.8314 45.4301 32.9719 46.0811 32.9719 47.1998C32.9719 48.3185 33.8262 48.9712 34.7832 48.9712C35.7403 48.9712 36.5894 48.3185 36.5894 47.1998ZM36.0707 47.1998C36.0707 48.014 35.4783 48.5641 34.7832 48.5641V48.559C34.0693 48.5641 33.4924 48.014 33.4924 47.1998C33.4924 46.3856 34.0693 45.8422 34.7832 45.8422C35.4783 45.8422 36.0707 46.3856 36.0707 47.1998Z" fill="#00629B"/>
<path d="M216.132 2.9165C218.249 2.9165 220.644 2.9165 222.337 3.88574C224.676 5.18773 224.959 7.82071 224.959 9.01178C224.959 10.952 224.282 12.5321 223.493 13.4723C221.462 15.9108 218.079 15.9108 214.92 15.8835C214.92 18.711 214.92 19.4038 215.033 22.4241L214.89 22.5896C212.634 22.5623 212.183 22.5896 210.097 22.6733L209.929 22.5077C210.014 19.1273 210.097 15.7743 210.097 12.3939C210.097 9.20631 210.012 6.79687 209.899 3.19294L210.068 3.02742L213.65 2.97282L216.13 2.9165H216.132ZM214.92 12.4775C216.611 12.4775 217.657 12.4212 218.416 12.0065C219.911 11.2028 219.911 9.59537 219.911 9.20802C219.911 7.60058 219.233 6.3532 216.754 6.2986C216.132 6.2986 215.541 6.2986 214.92 6.32761V12.4792V12.4775Z" fill="#00629B"/>
<path d="M240.641 7.98795C240.585 10.5936 240.556 13.1976 240.556 15.8033C240.556 19.4055 240.613 20.4601 240.754 22.4258L240.585 22.5914C238.752 22.5914 238.132 22.5914 236.074 22.675L235.876 22.5094L235.905 21.2621C234.889 22.0385 233.733 22.9258 231.732 22.9258C230.322 22.9258 228.969 22.4821 228.038 21.4566C227.022 20.2928 226.882 19.0181 226.911 15.9978V14.0576C226.911 11.2591 226.882 10.4827 226.713 8.15517L226.911 7.98965L231.564 7.76782L231.76 7.98965L231.704 13.5867C231.677 14.2795 231.677 14.9996 231.677 15.6924C231.677 17.3271 231.677 19.4328 233.707 19.4328C234.467 19.4328 235.06 19.0181 235.822 18.5182C235.851 17.4107 235.851 16.967 235.851 16.1633C235.851 15.7197 235.851 11.2847 235.653 8.15347L235.851 7.98795L240.448 7.76611L240.644 7.98795H240.641Z" fill="#00629B"/>
<path d="M248.735 22.5913C246.676 22.564 245.917 22.5913 244.027 22.6749L243.859 22.4804C243.97 19.7365 244.027 18.0745 244.027 15.0814C244.027 13.4467 244.027 11.812 243.998 10.1772C243.942 5.68768 243.913 4.77305 243.63 1.39266L243.743 1.22714L248.565 0.479736L248.763 0.674266C248.65 3.6673 248.622 4.91468 248.622 7.54596C248.622 16.3032 248.763 19.2126 248.904 22.4002L248.735 22.5947V22.5913Z" fill="#00629B"/>
<path d="M263.429 18.7399L263.318 22.0657L263.149 22.2313C261.965 22.564 261.006 22.8404 259.511 22.8404C253.167 22.8404 251.474 18.5164 251.474 15.3306C251.474 12.503 252.771 7.57153 259.4 7.57153C261.036 7.57153 262.107 7.90428 263.347 8.29164L263.49 8.45716C263.264 9.92467 263.236 10.3137 263.122 11.7829L262.84 11.8666C261.995 11.312 261.317 10.8683 260.076 10.8683C257.34 10.8683 256.439 13.1958 256.439 15.2196C256.439 16.8834 257.087 19.4874 260.274 19.4874C261.711 19.4874 262.444 19.0437 263.207 18.6L263.432 18.7382L263.429 18.7399Z" fill="#00629B"/>
<path d="M279.336 22.564C277.165 22.564 276.714 22.564 274.683 22.6749L274.543 22.4804C274.543 21.5658 274.571 20.6784 274.571 19.7638C274.571 18.7383 274.543 14.8033 274.485 13.9433C274.374 12.8358 274.26 11.2557 272.709 11.2557C271.75 11.2557 271.073 11.7266 270.536 12.0867C270.566 16.9909 270.594 18.2383 270.79 22.3951L270.622 22.5606C268.338 22.5606 267.914 22.5606 265.828 22.6715L265.688 22.477C265.743 19.7604 265.799 18.1257 265.799 15.3835C265.799 13.1378 265.771 10.8939 265.714 8.65C265.658 5.07508 265.603 4.07683 265.347 1.38925L265.488 1.22372L270.311 0.476318L270.479 0.67085L270.394 9.20628C271.521 8.54079 273.131 7.57155 275.189 7.57155C276.43 7.57155 277.613 7.9316 278.431 9.06807C279.249 10.2318 279.277 11.7557 279.306 14.3886V16.467C279.362 19.3492 279.391 20.1256 279.503 22.3968L279.334 22.5623L279.336 22.564Z" fill="#00629B"/>
<path d="M289.491 22.9241C285.458 22.9241 284.076 21.4276 283.343 20.3474C282.299 18.8509 282.018 17.0507 282.018 15.276C282.018 10.1773 284.783 7.59888 289.69 7.59888C290.423 7.59888 291.891 7.65519 293.131 8.12616C297.08 9.64997 297.08 14.1395 297.08 15.2197C297.08 19.3765 295.472 22.9241 289.492 22.9241H289.491ZM291.38 11.3137C291.014 10.8701 290.364 10.4537 289.576 10.4537C288.673 10.4537 287.94 10.952 287.516 11.7011C286.952 12.6703 286.952 14.445 286.952 15.2487C286.952 17.938 287.488 18.8782 287.968 19.3492C288.306 19.6546 288.813 19.9874 289.546 19.9874C291.887 19.9874 292.198 17.4653 292.198 15.1941C292.198 13.6976 292.057 12.1174 291.38 11.3137Z" fill="#00629B"/>
<path d="M317.018 22.5914C314.762 22.5641 313.916 22.5914 311.829 22.675L311.632 22.4804L310.448 16.4671L310.024 14.416L309.602 12.3103L308.895 15.6634L308.107 19.0164L307.374 22.3968L307.206 22.5914C304.609 22.5641 303.906 22.5914 301.959 22.675L301.761 22.5094C300.973 19.1018 300.549 17.4653 297.897 8.32069L298.066 8.09886L302.637 7.76611L302.805 7.90433L303.765 12.5048L304.443 15.4978L304.978 18.2417L305.513 15.6924L306.19 12.6447L307.121 8.10057L307.317 7.90604L312.732 7.82242L312.9 8.01695L313.886 12.8102L314.508 15.6924L314.987 18.1581L315.522 15.6087L316.313 12.2557L317.13 8.09886L317.327 7.90433L320.994 7.82072L321.163 8.04255C320.852 9.17902 320.541 10.3428 320.203 11.4793C318.511 17.4363 318.313 18.1018 317.186 22.3968L317.018 22.5914Z" fill="#00629B"/>
<path d="M336.958 22.4804L331.882 22.6749L331.629 22.5094C330.191 19.5727 329.882 18.9618 327.428 14.5286L327.456 17.7161L327.624 22.4002L327.456 22.5947C325.313 22.5947 324.778 22.5947 322.887 22.6784L322.689 22.4838C322.718 17.9943 322.718 13.5047 322.661 9.01517C322.604 5.38565 322.519 4.08196 322.322 1.39437L322.491 1.19984L327.398 0.479736L327.624 0.645258C327.483 4.83107 327.456 5.93852 327.428 11.1209V14.1958C328.725 12.2846 329.007 11.841 331.205 8.10054L331.488 7.90601L336.085 7.8514L336.226 8.12784C334.225 10.6499 334.025 10.9263 332.08 13.532C334.223 17.3288 334.505 17.827 337.156 22.233L336.958 22.4821V22.4804Z" fill="#00629B"/>
<path d="M361.581 17.7418L361.385 21.8713L361.242 22.0368C360.339 22.3968 358.788 23.006 356.42 23.006C349.539 23.006 346.238 18.3219 346.238 13.0014C346.238 8.15178 348.777 2.60938 356.081 2.60938C358.563 2.60938 360.284 3.24586 361.299 3.63492L361.411 3.77314L361.157 7.59719L360.905 7.65351C360.198 7.12623 359.044 6.32251 356.928 6.32251C352.332 6.32251 351.484 10.5066 351.484 12.8905C351.484 16.8254 353.742 19.1803 356.956 19.1803C359.295 19.1803 360.735 18.1274 361.385 17.6274L361.581 17.7384V17.7418Z" fill="#00629B"/>
<path d="M376.303 16.3834C376.303 18.9874 376.303 19.6802 376.501 22.3968L376.36 22.5913C374.527 22.564 373.907 22.5913 371.875 22.675L371.706 22.4804V21.4549C371.114 21.9258 369.902 22.9241 367.785 22.9241C365.022 22.9241 362.85 21.0112 362.85 18.0472C362.85 16.7998 363.386 15.2197 364.967 14.2504C366.658 13.2249 368.238 12.9194 371.623 12.4775C371.623 12.0611 371.538 11.5629 371.255 11.2847C370.887 10.9247 370.466 10.7591 369.421 10.7591C367.531 10.7591 365.699 11.4792 364.713 11.8666L364.487 11.7557L364.628 8.73534L364.796 8.51351C366.403 8.04254 367.898 7.59888 370.322 7.59888C373.933 7.59888 375.061 8.70633 375.626 9.59366C376.359 10.7574 376.359 11.8393 376.331 14.3323L376.301 16.3834H376.303ZM371.679 15.3852C369.76 15.6343 367.532 15.9398 367.532 17.769C367.532 18.9328 368.377 19.4601 369.393 19.4601C370.322 19.4601 371.085 19.071 371.677 18.74V15.3869L371.679 15.3852Z" fill="#00629B"/>
<path d="M401.489 22.564C399.514 22.564 398.894 22.564 396.781 22.6476L396.612 22.4821C396.64 21.6511 396.668 17.5216 396.697 16.5796C396.697 16.0524 396.725 15.5268 396.725 14.9995C396.725 12.6174 396.472 11.1209 394.864 11.1209C394.018 11.1209 393.398 11.5082 392.919 11.8137L392.946 14.6122V15.6377C392.976 18.9908 393.004 19.7655 393.174 22.3985L393.005 22.564C391.059 22.564 390.466 22.564 388.323 22.6749L388.155 22.4804C388.211 20.2348 388.24 19.6256 388.24 15.607C388.24 13.2231 388.183 11.2557 386.436 11.2557C385.729 11.2557 385.081 11.6157 384.489 12.0321C384.519 16.8544 384.546 18.1291 384.743 22.3968L384.574 22.5623C382.235 22.5623 381.615 22.5896 379.809 22.6459L379.666 22.4804C379.666 20.9003 379.696 19.2928 379.696 17.7144C379.696 12.2266 379.528 10.7028 379.302 8.48616L379.47 8.29163C381.445 8.01519 382.065 7.90257 384.263 7.48792L384.517 7.73705V9.28988C385.814 8.40255 387.028 7.57153 388.888 7.57153C391.144 7.57153 391.849 8.7353 392.243 9.37179C393.37 8.59537 394.921 7.57153 397.234 7.57153C397.686 7.57153 399.632 7.57153 400.73 9.14995C401.55 10.3137 401.52 12.0321 401.492 13.8886V15.967C401.492 19.0983 401.522 19.8201 401.661 22.3968L401.492 22.5623L401.489 22.564Z" fill="#00629B"/>
<path d="M409.528 8.87356C410.317 8.34628 411.418 7.57157 413.363 7.57157C416.522 7.57157 419.257 10.2319 419.257 14.6378C419.257 16.5234 418.666 18.8782 416.86 20.5402C414.575 22.6459 411.727 22.6732 409.667 22.7023L409.865 29.2975L409.697 29.4357C407.554 29.4084 406.962 29.4357 404.959 29.5193L404.791 29.3811C404.876 26.2499 404.932 24.3643 404.932 21.0675C404.932 13.0867 404.82 11.812 404.508 8.51351L404.676 8.31898C406.708 8.06984 407.299 7.95892 409.358 7.51526L409.584 7.76439L409.528 8.87185V8.87356ZM409.641 19.6256C410.628 19.5966 411.756 19.542 412.658 18.9328C413.785 18.1564 414.321 16.7162 414.321 15.1088C414.321 14.1668 414.179 12.7522 413.305 11.8103C412.6 11.0356 411.755 10.9793 411.331 10.9793C410.626 10.9793 410.259 11.1738 409.64 11.5338V19.6256H409.641Z" fill="#00629B"/>
<path d="M435.673 7.98795C435.618 10.5936 435.588 13.1976 435.588 15.8033C435.588 19.4055 435.644 20.4601 435.786 22.4258L435.618 22.5914C433.784 22.5914 433.164 22.5914 431.106 22.675L430.908 22.5094L430.937 21.2621C429.922 22.0385 428.765 22.9258 426.764 22.9258C425.354 22.9258 424 22.4821 423.071 21.4566C422.055 20.2928 421.914 19.0181 421.942 15.9978V14.0576C421.942 11.2591 421.914 10.4827 421.746 8.15517L421.942 7.98965L426.596 7.76782L426.792 7.98965L426.737 13.5867C426.707 14.2795 426.707 14.9996 426.707 15.6924C426.707 17.3271 426.707 19.4328 428.739 19.4328C429.5 19.4328 430.092 19.0181 430.854 18.5182C430.882 17.4107 430.882 16.967 430.882 16.1633C430.882 15.7197 430.882 11.2847 430.686 8.15347L430.882 7.98795L435.479 7.76611L435.677 7.98795H435.673Z" fill="#00629B"/>
<path d="M446.277 13.5303C447.828 14.1122 450 14.9159 450 17.9635C450 18.1581 450 18.3509 449.971 18.5727C449.464 22.535 445.233 22.9241 443.09 22.9241C440.948 22.9241 439.848 22.4804 438.466 21.9821L438.323 21.733C438.436 20.3474 438.466 20.0419 438.521 18.6017L438.775 18.4908C439.199 18.8236 439.423 19.0181 439.902 19.2655C440.946 19.7928 442.102 20.0419 442.893 20.0419C444.471 20.0419 445.119 19.2945 445.119 18.6017C445.119 17.6035 443.879 17.1888 443.118 16.938L442.047 16.5506C440.722 16.0524 438.381 15.165 438.381 12.1993C438.381 11.0901 438.775 10.2591 439.141 9.76085C440.607 7.68245 443.374 7.57153 444.754 7.57153C446.588 7.57153 447.743 7.90428 449.068 8.26433L449.21 8.42985L448.927 11.4502L448.674 11.5338C447.969 11.0901 446.869 10.37 445.148 10.37C443.427 10.37 443.174 11.2847 443.174 11.6174C443.174 12.3938 443.936 12.6976 444.895 13.0303L446.277 13.5286V13.5303Z" fill="#00629B"/>
<path d="M213.244 33.869C213.167 35.5703 213.115 37.577 213.115 41.9454C213.115 46.8223 213.167 48.9041 213.322 51.52L213.167 51.6975C212.03 51.7231 211.667 51.7231 210.297 51.7743L210.14 51.5968C210.192 50.0474 210.243 48.7011 210.243 45.4248C210.243 41.5905 210.243 37.7801 210.064 33.9697L210.192 33.7666C211.33 33.7666 211.743 33.7666 213.061 33.6898L213.242 33.8673L213.244 33.869Z" fill="#00629B"/>
<path d="M228.832 49.6157C228.756 50.4791 228.756 50.6566 228.703 51.52L228.523 51.6975C223.481 51.6975 222.681 51.7231 217.772 51.7743L217.641 51.5968C217.719 49.5901 217.798 48.2182 217.798 43.5716C217.798 39.3056 217.798 36.8672 217.617 33.9458L217.773 33.7683C222.865 33.7427 223.872 33.7427 228.629 33.6915L228.785 33.869C228.707 34.6318 228.657 34.9355 228.605 35.8501L228.448 36.0276C225.114 35.9269 224.004 35.9269 220.72 35.9013C220.642 38.2374 220.642 38.9746 220.642 41.3106C223.822 41.3362 224.805 41.3106 227.957 41.2594L228.087 41.4369C227.985 42.3259 227.985 42.5802 227.957 43.3924L227.802 43.5699C224.803 43.4931 224.157 43.4931 220.642 43.4931C220.592 46.4401 220.616 47.1516 220.642 49.5628C224.544 49.5628 225.348 49.5628 228.681 49.4365L228.835 49.614L228.832 49.6157Z" fill="#00629B"/>
<path d="M242.844 49.6157C242.767 50.4791 242.767 50.6566 242.715 51.52L242.535 51.6975C237.493 51.6975 236.693 51.7231 231.783 51.7743L231.653 51.5968C231.731 49.5901 231.809 48.2182 231.809 43.5716C231.809 39.3056 231.809 36.8672 231.629 33.9458L231.785 33.7683C236.877 33.7427 237.884 33.7427 242.641 33.6915L242.797 33.869C242.719 34.6318 242.668 34.9355 242.616 35.8501L242.46 36.0276C239.126 35.9269 238.016 35.9269 234.732 35.9013C234.654 38.2374 234.654 38.9746 234.654 41.3106C237.834 41.3362 238.817 41.3106 241.968 41.2594L242.099 41.4369C241.996 42.3259 241.996 42.5802 241.968 43.3924L241.814 43.5699C238.815 43.4931 238.169 43.4931 234.654 43.4931C234.603 46.4401 234.628 47.1516 234.654 49.5628C238.556 49.5628 239.36 49.5628 242.693 49.4365L242.847 49.614L242.844 49.6157Z" fill="#00629B"/>
<path d="M256.857 49.6157C256.78 50.4791 256.78 50.6566 256.728 51.52L256.548 51.6975C251.506 51.6975 250.706 51.7231 245.796 51.7743L245.666 51.5968C245.744 49.5901 245.822 48.2182 245.822 43.5716C245.822 39.3056 245.822 36.8672 245.642 33.9458L245.798 33.7683C250.89 33.7427 251.897 33.7427 256.653 33.6915L256.81 33.869C256.732 34.6318 256.681 34.9355 256.629 35.8501L256.473 36.0276C253.139 35.9269 252.029 35.9269 248.745 35.9013C248.667 38.2374 248.667 38.9746 248.667 41.3106C251.847 41.3362 252.829 41.3106 255.981 41.2594L256.112 41.4369C256.009 42.3259 256.009 42.5802 255.981 43.3924L255.827 43.5699C252.828 43.4931 252.182 43.4931 248.667 43.4931C248.616 46.4401 248.641 47.1516 248.667 49.5628C252.569 49.5628 253.373 49.5628 256.706 49.4365L256.86 49.614L256.857 49.6157Z" fill="#00629B"/>
<path d="M273.896 41.5393C275.784 42.3516 278.292 43.4181 278.292 46.6688C278.292 49.5133 276.147 52.0781 271.647 52.0781C268.907 52.0781 267.149 51.2658 266.531 50.9604L266.429 50.7829C266.531 49.8939 266.557 49.4109 266.635 48.4468L266.892 48.3462C267.538 48.7779 269.037 49.8444 271.442 49.8444C274.106 49.8444 275.216 48.498 275.216 46.9742C275.216 45.1961 273.717 44.5119 272.036 43.8754L270.744 43.3174C268.909 42.4795 266.453 41.3874 266.453 38.2886C266.453 37.3484 266.712 36.3843 267.254 35.6215C268.441 33.9458 270.588 33.3861 272.682 33.3861C274.777 33.3861 275.966 33.7666 277.335 34.1984L277.463 34.4014C277.361 35.3655 277.335 35.7222 277.256 36.6368L277.05 36.7375C275.937 36.1778 274.723 35.5703 272.785 35.5703C270.64 35.5703 269.296 36.56 269.296 38.0599C269.296 39.2032 270.072 39.7356 270.616 40.0667C270.951 40.2697 271.055 40.3209 272.606 40.9813L273.898 41.541L273.896 41.5393Z" fill="#00629B"/>
<path d="M287.057 49.6925C286.979 50.5304 286.979 50.7078 286.954 51.445L286.824 51.5969C286.282 51.7249 285.843 51.8255 284.886 51.8255C284.266 51.8255 282.637 51.8255 281.837 50.5048C281.371 49.7693 281.371 49.1584 281.371 46.162L281.423 40.5735C280.517 40.5735 280.493 40.5991 279.562 40.6247L279.459 40.4728C279.51 39.6606 279.51 39.4575 279.51 38.6436L279.666 38.4917C280.235 38.4917 280.571 38.5173 281.423 38.4917C281.396 37.9593 281.396 37.3996 281.396 36.8655C281.37 36.3826 281.345 35.9014 281.319 35.4167L281.448 35.2393C282.611 34.9594 282.896 34.8826 284.084 34.5277L284.264 34.6557C284.186 36.3314 284.162 36.6624 284.162 38.5156C285.247 38.49 285.556 38.49 287.031 38.4405L287.161 38.5924C287.109 39.2527 287.083 39.5326 287.083 40.396L286.954 40.5479C285.661 40.5223 285.506 40.4967 284.138 40.4967L284.086 45.2217C284.112 45.5255 284.112 46.9742 284.112 47.3292C284.112 49.1823 284.346 49.7676 285.636 49.7676C286.18 49.7676 286.593 49.6396 286.878 49.5389L287.059 49.6908L287.057 49.6925Z" fill="#00629B"/>
<path d="M300.655 38.5685C300.604 40.4984 300.577 42.3021 300.577 44.3583C300.577 47.4827 300.655 49.3615 300.707 50.4536C300.707 50.8085 300.733 51.1651 300.757 51.5201L300.655 51.6719C299.413 51.6975 299.206 51.7231 298.018 51.7743L297.864 51.6207L297.89 50.5542C297.32 50.9604 295.952 52.0013 293.832 52.0013C292.824 52.0013 291.711 51.7726 290.886 51.1378C289.231 49.8171 289.231 47.6585 289.207 45.6773V44.1023C289.155 40.4711 289.155 40.065 289.077 38.693L289.207 38.5156C290.421 38.49 290.653 38.49 291.869 38.3893L292.025 38.5667L291.921 44.1296C291.921 44.8156 291.895 45.3241 291.921 46.5425C291.949 47.609 291.999 49.8956 294.61 49.8956C296.134 49.8956 297.22 49.0577 297.84 48.5748C297.867 47.2029 297.867 46.0357 297.867 44.5613C297.867 41.0308 297.84 40.3192 297.687 38.6691L297.841 38.4917C299.031 38.4661 299.314 38.4661 300.505 38.391L300.66 38.5685H300.655Z" fill="#00629B"/>
<path d="M312.961 31.9646C314.279 31.736 314.538 31.6848 315.701 31.4323L315.882 31.5841C315.701 35.1147 315.675 41.413 315.675 43.9538C315.675 47.8905 315.778 49.771 315.882 51.5218L315.754 51.6992C314.616 51.6992 314.305 51.7248 313.116 51.776L312.937 51.6224L312.987 50.6839C312.367 51.1412 311.308 51.9535 309.42 51.9535C305.983 51.9535 303.606 49.2881 303.606 45.4265C303.606 42.6587 304.794 40.9045 305.879 39.966C307.765 38.2903 310.222 38.2135 311.565 38.2135C312.108 38.2135 312.367 38.2135 313.065 38.2647C313.091 35.1147 312.963 33.5909 312.831 32.1182L312.961 31.9664V31.9646ZM312.987 40.3209C312.548 40.2953 312.237 40.2441 311.695 40.2441C310.895 40.2441 309.187 40.2953 307.946 41.4386C307.376 41.9727 306.447 43.1672 306.447 45.4265C306.447 46.8735 306.86 47.9161 307.404 48.5509C307.868 49.0833 308.722 49.6942 310.066 49.6942C311.643 49.6942 312.6 48.8819 312.961 48.5765C313.011 45.249 313.011 44.4862 312.987 40.3226V40.3209Z" fill="#00629B"/>
<path d="M330.102 48.6004C329.974 49.6157 329.946 49.87 329.895 50.8614L329.739 51.0389C329.3 51.2675 327.904 52.003 325.604 52.003C321.365 52.003 318.703 49.6157 318.703 45.1962C318.703 40.4711 321.598 38.1606 324.983 38.1606C327.025 38.1606 328.447 38.9985 329.222 39.9131C330.694 41.64 330.644 44.1535 330.616 45.2712L330.437 45.4231C326.405 45.3975 325.707 45.3975 321.466 45.4231C321.494 46.3121 321.568 47.5561 322.447 48.597C323.506 49.841 324.981 49.969 325.783 49.969C326.532 49.969 327.306 49.841 328.032 49.5884C328.989 49.2079 329.555 48.7506 329.894 48.4707L330.1 48.597L330.102 48.6004ZM327.699 41.9728C327.183 40.5752 326.044 39.9916 324.882 39.9916C323.435 39.9916 321.73 40.9557 321.469 43.4966C324.597 43.5222 325.58 43.4966 327.957 43.471C327.931 43.1143 327.905 42.5563 327.699 41.9728Z" fill="#00629B"/>
<path d="M344.839 51.6737C343.598 51.6993 343.443 51.6993 342.253 51.776L342.073 51.5986C342.073 51.3187 342.099 51.0389 342.099 50.7607C342.127 49.5168 342.127 48.2711 342.127 47.0271C342.127 43.116 342.099 42.8618 341.97 42.3294C341.479 40.3994 340.006 40.3994 339.643 40.3994C338.093 40.3994 336.903 41.2885 336.207 41.8209C336.18 46.2405 336.233 48.5509 336.413 51.5235L336.257 51.6754C334.991 51.701 334.784 51.701 333.543 51.7777L333.414 51.6003C333.44 50.1771 333.492 48.8052 333.492 46.9264C333.492 42.8635 333.312 40.7049 333.183 39.0019L333.338 38.8244C334.631 38.5958 334.862 38.5446 336.078 38.3159L336.259 38.4934L336.233 39.8141C336.905 39.3568 338.506 38.2391 340.783 38.2391C341.427 38.2391 342.231 38.3415 342.927 38.722C343.599 39.1026 344.141 39.6862 344.426 40.3721C344.763 41.1349 344.789 41.896 344.813 43.471V46.4418C344.891 49.4127 344.916 50.556 344.994 51.5218L344.839 51.6737Z" fill="#00629B"/>
<path d="M354.38 49.6925C354.302 50.5304 354.302 50.7078 354.277 51.445L354.147 51.5969C353.605 51.7249 353.166 51.8255 352.209 51.8255C351.589 51.8255 349.96 51.8255 349.159 50.5048C348.694 49.7693 348.694 49.1584 348.694 46.162L348.746 40.5735C347.84 40.5735 347.815 40.5991 346.884 40.6247L346.782 40.4728C346.832 39.6606 346.832 39.4575 346.832 38.6436L346.989 38.4917C347.558 38.4917 347.893 38.5173 348.746 38.4917C348.718 37.9593 348.718 37.3996 348.718 36.8655C348.692 36.3826 348.668 35.9014 348.642 35.4167L348.77 35.2393C349.934 34.9594 350.219 34.8826 351.407 34.5277L351.587 34.6557C351.509 36.3314 351.485 36.6624 351.485 38.5156C352.57 38.49 352.879 38.49 354.354 38.4405L354.484 38.5924C354.432 39.2527 354.406 39.5326 354.406 40.396L354.277 40.5479C352.983 40.5223 352.829 40.4967 351.46 40.4967L351.408 45.2217C351.434 45.5255 351.434 46.9742 351.434 47.3292C351.434 49.1823 351.669 49.7676 352.959 49.7676C353.503 49.7676 353.916 49.6396 354.201 49.5389L354.381 49.6908L354.38 49.6925Z" fill="#00629B"/>
<path d="M364.413 51.776L364.283 51.5985C364.335 50.3785 364.361 49.2113 364.361 46.9008C364.361 45.8087 364.387 40.5001 364.387 39.3073C364.387 36.6402 364.309 35.2682 364.207 33.9492L364.337 33.7717L367.8 33.7205C368.317 33.6949 369.119 33.6949 369.816 33.6949C371.341 33.6949 372.968 33.7461 374.262 34.4833C375.218 35.0157 376.304 36.0822 376.304 37.9627C376.304 38.8517 376.045 41.3908 372.452 42.2543C373.046 42.2799 373.9 42.3055 374.831 42.7116C377.052 43.6757 377.287 45.6056 377.287 46.5459C377.287 48.8819 375.814 50.5337 373.744 51.2709C372.374 51.7538 371.004 51.7538 368.963 51.7538L364.415 51.7794L364.413 51.776ZM367.204 41.4386C369.531 41.4642 371.313 41.4386 372.4 40.6008C373.044 40.0684 373.457 39.2288 373.457 38.391C373.457 37.705 373.174 37.0446 372.735 36.5873C371.83 35.7239 370.227 35.7239 369.633 35.7239C368.807 35.7239 368.005 35.7495 367.204 35.7989V41.4369V41.4386ZM367.204 43.5716C367.204 46.4674 367.204 46.8991 367.306 49.6669H367.798C369.736 49.6669 371.313 49.6925 372.322 49.2864C373.563 48.829 374.26 47.7625 374.26 46.4913C374.26 43.5204 370.924 43.4948 369.686 43.4948C369.451 43.4948 369.22 43.4948 367.824 43.546L367.202 43.5716H367.204Z" fill="#00629B"/>
<path d="M386.284 41.1331C386.025 41.0324 385.69 40.9045 385.249 40.9045C384.757 40.9045 384.396 41.0819 384.163 41.2355C383.104 41.9727 383.104 43.0904 383.104 45.7302C383.104 48.6003 383.182 50.0986 383.285 51.52L383.156 51.6975C381.941 51.6975 381.656 51.7231 380.414 51.7743L380.286 51.6207C380.312 49.6907 380.338 47.9383 380.338 45.5766C380.338 41.5136 380.26 40.471 380.103 38.9984L380.26 38.8209C381.241 38.6435 381.861 38.5155 382.946 38.3124L383.102 38.4643L382.974 40.6229C383.283 39.8106 383.931 38.1844 386.126 38.1844C386.463 38.1844 386.642 38.21 386.85 38.2612L386.952 38.4131C386.694 39.6332 386.642 39.8857 386.461 41.0034L386.28 41.1314L386.284 41.1331Z" fill="#00629B"/>
<path d="M398.744 46.4674C398.744 49.6157 398.77 49.8956 398.898 51.5474L398.77 51.6737C397.556 51.6993 397.347 51.7249 396.159 51.776L396.057 51.6225L396.083 50.7078C395.592 51.0884 394.428 52.003 392.464 52.003C389.88 52.003 388.07 50.2761 388.07 47.7626C388.07 44.3583 390.965 43.2679 395.619 42.7338L396.059 42.6826C396.059 41.9966 396.059 41.5154 395.826 41.1076C395.567 40.6503 394.973 40.1691 393.681 40.1691C392 40.1691 390.838 40.6759 389.751 41.1332L389.545 41.0052C389.597 39.838 389.597 39.6845 389.623 39.1521L389.779 38.9985C391.227 38.4917 392.724 38.1606 394.251 38.1606C396.163 38.1606 398.023 38.7954 398.566 40.7766C398.747 41.4864 398.747 42.884 398.747 43.9505V46.4657L398.744 46.4674ZM395.849 44.6126C393.238 44.9931 390.807 45.348 390.807 47.609C390.807 47.737 390.807 49.9212 393.263 49.9212C394.866 49.9212 395.798 49.0577 396.08 48.8035V44.5631L395.847 44.6143L395.849 44.6126Z" fill="#00629B"/>
<path d="M413.789 51.6737C412.549 51.6993 412.395 51.6993 411.205 51.776L411.025 51.5986C411.025 51.3187 411.051 51.0389 411.051 50.7607C411.077 49.5168 411.077 48.2711 411.077 47.0271C411.077 43.116 411.051 42.8618 410.922 42.3294C410.431 40.3994 408.958 40.3994 408.595 40.3994C407.044 40.3994 405.855 41.2885 405.158 41.8209C405.132 46.2405 405.184 48.5509 405.365 51.5235L405.209 51.6754C403.943 51.701 403.736 51.701 402.494 51.7777L402.366 51.6003C402.392 50.1771 402.444 48.8052 402.444 46.9264C402.444 42.8635 402.264 40.7049 402.135 39.0019L402.29 38.8244C403.583 38.5958 403.814 38.5446 405.03 38.3159L405.211 38.4934L405.185 39.8141C405.857 39.3568 407.458 38.2391 409.734 38.2391C410.379 38.2391 411.181 38.3415 411.879 38.722C412.551 39.1026 413.093 39.6862 413.378 40.3721C413.713 41.1349 413.741 41.896 413.765 43.471V46.4418C413.843 49.4127 413.868 50.556 413.946 51.5218L413.789 51.6737Z" fill="#00629B"/>
<path d="M427.13 48.6772C427.028 49.7693 427.002 49.8956 426.924 50.9382L426.743 51.1157C425.995 51.4706 424.986 51.9791 423.178 51.9791C419.276 51.9791 416.742 49.2113 416.742 45.2491C416.742 41.2868 419.222 38.1624 423.228 38.1624C424.909 38.1624 426.099 38.6948 426.771 38.9746L426.873 39.1521C426.771 40.0667 426.743 40.396 426.693 41.1588L426.486 41.2595C425.633 40.6503 424.65 40.2681 423.615 40.2681C421.471 40.2681 419.585 41.8943 419.585 45.145C419.585 48.5987 421.575 49.8427 423.591 49.8427C425.349 49.8427 426.434 48.9537 426.925 48.5731L427.132 48.6738L427.13 48.6772Z" fill="#00629B"/>
<path d="M440.702 51.6736C439.462 51.6992 439.308 51.6992 438.118 51.776L437.937 51.5985L437.964 50.7607C437.99 49.4399 437.99 48.0953 437.99 46.7728L437.964 44.0545C437.964 43.4709 437.963 42.8873 437.835 42.3276C437.55 41.1605 436.826 40.3977 435.508 40.3977C434.035 40.3977 432.898 41.2099 432.043 41.8191C432.017 46.2387 432.071 48.5492 432.224 51.5218L432.095 51.6736C430.908 51.6992 430.595 51.6992 429.329 51.776L429.201 51.5985C429.253 49.7949 429.329 47.5083 429.329 42.6331C429.329 40.5001 429.303 38.3671 429.279 36.2324C429.227 33.9987 429.15 33.2615 429.072 32.1182L429.201 31.9664C430.442 31.7633 430.856 31.6865 432.017 31.434L432.174 31.6114C432.017 34.3297 432.017 37.0719 432.017 39.8141C432.846 39.2817 434.473 38.2391 436.645 38.2391C437.239 38.2391 437.833 38.3159 438.375 38.5445C439.539 39.0019 440.237 39.9165 440.495 40.9574C440.624 41.4659 440.624 41.7697 440.676 43.4726V46.4435L440.702 47.638C440.754 49.771 440.754 50.1276 440.858 51.5235L440.702 51.6753V51.6736Z" fill="#00629B"/>
<path d="M192.771 0V57" stroke="#00629B" stroke-width="3.10106" stroke-miterlimit="10"/>
</svg>
